<svg xmlns="http://www.w3.org/2000/svg" xmlns:xlink="http://www.w3.org/1999/xlink" x="0" y="0" width="702" height="472" style="
        width:702px;
        height:472px;
        background: transparent;
        fill: none;
">
        
        
        <svg xmlns="http://www.w3.org/2000/svg" class="role-diagram-draw-area" style="overflow: visible;"><g class="shapes-region" style="stroke: black; fill: none;"><g class="composite-shape"><path class="real" d=" M197.38,80.06 C197.38,78.44 198.69,77.13 200.31,77.13 C201.93,77.13 203.25,78.44 203.25,80.06 C203.25,81.68 201.93,83 200.31,83 C198.69,83 197.38,81.68 197.38,80.06 Z" style="stroke-width: 1; stroke: rgb(0, 0, 0); fill: rgb(0, 0, 0); fill-opacity: 1;"/></g><g class="arrow-line"><path class="connection real" stroke-dasharray="" d="  M399.98,83.25 L400.06,275.13" style="stroke: rgb(0, 0, 0); stroke-opacity: 1; stroke-width: 1; fill: none; fill-opacity: 1;"/><g stroke="rgb(0,0,0)" stroke-opacity="1" transform="matrix(-0.0003490658433093705,-0.9999999390765166,0.9999999390765166,-0.0003490658433093705,400.0625,277.12499999999994)" style="stroke: rgb(0, 0, 0); stroke-width: 1;"><path d=" M7.65,-2.3 Q3.47,-0.31 0,0 Q3.47,0.32 7.65,2.3"/></g></g><g class="arrow-line"><path class="connection real" stroke-dasharray="" d="  M397.13,280.06 L205,279.94" style="stroke: rgb(0, 0, 0); stroke-opacity: 0.33; stroke-width: 1; fill: none; fill-opacity: 1;"/><g stroke="rgb(0,0,0)" stroke-opacity="0.33" transform="matrix(0.9999997563060741,0.0006981316440872908,-0.0006981316440872908,0.9999997563060741,203,279.9375)" style="stroke: rgb(0, 0, 0); stroke-width: 1;"><path d=" M7.65,-2.3 Q3.47,-0.31 0,0 Q3.47,0.32 7.65,2.3"/></g></g><g class="arrow-line"><path class="connection real" stroke-dasharray="" d="  M200.06,277 L200.31,85" style="stroke: rgb(0, 0, 0); stroke-opacity: 0.33; stroke-width: 1; fill: none; fill-opacity: 1;"/><g stroke="rgb(0,0,0)" stroke-opacity="0.33" transform="matrix(-0.0012217301724646897,0.9999992536874144,-0.9999992536874144,-0.0012217301724646897,200.31249999999997,83)" style="stroke: rgb(0, 0, 0); stroke-width: 1;"><path d=" M7.65,-2.3 Q3.47,-0.31 0,0 Q3.47,0.32 7.65,2.3"/></g></g><g class="composite-shape"><path class="real" d=" M397.04,80.31 C397.04,78.69 398.36,77.38 399.98,77.38 C401.6,77.38 402.92,78.69 402.92,80.31 C402.92,81.93 401.6,83.25 399.98,83.25 C398.36,83.25 397.04,81.93 397.04,80.31 Z" style="stroke-width: 1; stroke: rgb(0, 0, 0); fill: rgb(0, 0, 0); fill-opacity: 1;"/></g><g class="composite-shape"><path class="real" d=" M397.13,280.06 C397.13,278.44 398.44,277.13 400.06,277.13 C401.68,277.13 403,278.44 403,280.06 C403,281.68 401.68,283 400.06,283 C398.44,283 397.13,281.68 397.13,280.06 Z" style="stroke-width: 1; stroke: rgb(0, 0, 0); fill: rgb(0, 0, 0); fill-opacity: 1;"/></g><g class="composite-shape"><path class="real" d=" M197.13,279.94 C197.13,278.32 198.44,277 200.06,277 C201.68,277 203,278.32 203,279.94 C203,281.56 201.68,282.88 200.06,282.88 C198.44,282.88 197.13,281.56 197.13,279.94 Z" style="stroke-width: 1; stroke: rgb(0, 0, 0); stroke-opacity: 0; fill: rgb(0, 0, 0); fill-opacity: 0.33;"/></g><g class="arrow-line"><path class="connection real" stroke-dasharray="" d="  M203.25,80.06 L395.04,80.31" style="stroke: rgb(0, 0, 0); stroke-opacity: 1; stroke-width: 1; fill: none; fill-opacity: 1;"/><g stroke="rgb(0,0,0)" stroke-opacity="1" transform="matrix(-0.9999992536874144,-0.0012217301724648734,0.0012217301724648734,-0.9999992536874144,397.04166666666663,80.31250000000003)" style="stroke: rgb(0, 0, 0); stroke-width: 1;"><path d=" M7.65,-2.3 Q3.47,-0.31 0,0 Q3.47,0.32 7.65,2.3"/></g></g><g class="arrow-line"><path class="connection real" stroke-dasharray="" d="  M202.5,82 L396.59,276.33" style="stroke: rgb(0, 0, 0); stroke-opacity: 0.33; stroke-width: 1; fill: none; fill-opacity: 1;"/><g stroke="rgb(0,0,0)" stroke-opacity="0.33" transform="matrix(-0.7066129552492252,-0.7076002624886147,0.7076002624886147,-0.7066129552492252,398,277.75)" style="stroke: rgb(0, 0, 0); stroke-width: 1;"><path d=" M7.65,-2.3 Q3.47,-0.31 0,0 Q3.47,0.32 7.65,2.3"/></g></g><g class="arrow-line"><path class="connection real" stroke-dasharray="" d="  M398,82.75 L203.67,276.09" style="stroke: rgb(0, 0, 0); stroke-opacity: 0.33; stroke-width: 1; fill: none; fill-opacity: 1;"/><g stroke="rgb(0,0,0)" stroke-opacity="0.33" transform="matrix(0.7089555570807732,-0.705253158861618,0.705253158861618,0.7089555570807732,202.25,277.5)" style="stroke: rgb(0, 0, 0); stroke-width: 1;"><path d=" M7.65,-2.3 Q3.47,-0.31 0,0 Q3.47,0.32 7.65,2.3"/></g></g><g/></g><g/><g/><g/></svg>
        <svg xmlns="http://www.w3.org/2000/svg" xmlns:xlink="http://www.w3.org/1999/xlink" width="700" height="470" style="width:700px;height:470px;font-family:Asana-Math, Asana;background:transparent;"><g><g><g><g transform="matrix(1,0,0,1,186.65625,69.928125)"><path transform="matrix(0.0136,0,0,-0.0136,0,0)" d="M418 -3L418 27L366 30C311 33 301 44 301 96L301 700L60 598L67 548L217 614L217 96C217 44 206 33 152 30L96 27L96 -3C250 0 250 0 261 0C292 0 402 -3 418 -3Z" stroke="rgb(0,0,0)" stroke-opacity="1" stroke-width="8" fill="rgb(0,0,0)" fill-opacity="1"></path></g></g></g></g><g><g><g><g transform="matrix(1,0,0,1,407.328125,69.6)"><path transform="matrix(0.0136,0,0,-0.0136,0,0)" d="M16 23L16 -3C203 -3 203 0 239 0C275 0 275 -3 468 -3L468 82C353 77 307 81 122 77L304 270C401 373 431 428 431 503C431 618 353 689 226 689C154 689 105 669 56 619L39 483L68 483L81 529C97 587 133 612 200 612C286 612 341 558 341 473C341 398 299 324 186 204Z" stroke="rgb(0,0,0)" stroke-opacity="1" stroke-width="8" fill="rgb(0,0,0)" fill-opacity="1"></path></g></g></g></g><g><g><g><g transform="matrix(1,0,0,1,407,299.25625)"><path transform="matrix(0.0136,0,0,-0.0136,0,0)" d="M462 224C462 345 355 366 308 374C388 436 418 482 418 541C418 630 344 689 233 689C165 689 120 670 72 622L43 498L74 498L92 554C103 588 166 622 218 622C283 622 336 569 336 506C336 431 277 368 206 368C198 368 187 369 174 370L159 371L147 318L154 312C192 329 211 334 238 334C321 334 369 281 369 190C369 88 308 21 215 21C169 21 128 36 98 64C74 86 61 109 42 163L15 153C36 92 44 56 50 6C103 -12 147 -20 184 -20C307 -20 462 87 462 224Z" stroke="rgb(0,0,0)" stroke-opacity="1" stroke-width="8" fill="rgb(0,0,0)" fill-opacity="1"></path></g></g></g></g><g><g><g><g transform="matrix(1,0,0,1,186.328125,299.25625)"><path transform="matrix(0.0136,0,0,-0.0136,0,0)" d="M280 181L280 106C280 46 269 32 220 30L158 27L158 -3C291 0 291 0 315 0C339 0 339 0 472 -3L472 27L424 30C375 33 364 46 364 106L364 181C423 181 444 180 472 177L472 248L364 245L365 697L285 667L2 204L2 181ZM280 245L65 245L280 597Z" stroke="rgb(0,0,0)" stroke-opacity="0.5" stroke-width="8" fill="rgb(0,0,0)" fill-opacity="0.5"></path></g></g></g></g><g><g><g><g transform="matrix(1,0,0,1,295.40625,70.70625)"><path transform="matrix(0.015300000000000001,0,0,-0.015300000000000001,0,0)" d="M328 111L304 94C251 56 203 36 167 36C120 36 91 73 91 133C91 158 94 185 99 214C116 218 225 248 250 259C335 296 374 342 374 404C374 451 340 482 290 482C222 496 112 423 75 349C45 299 15 180 15 113C15 35 59 -11 131 -11C188 -11 244 17 336 92ZM113 274C130 343 150 386 179 412C197 428 228 440 252 440C281 440 300 420 300 388C300 344 265 297 213 272C185 258 149 247 104 237Z" stroke="rgb(0,0,0)" stroke-opacity="1" stroke-width="8" fill="rgb(0,0,0)" fill-opacity="1"></path></g></g><g><g><g><g><g transform="matrix(1,0,0,1,301.796875,73.41312500000001)"><path transform="matrix(0.01071,0,0,-0.01071,0,0)" d="M418 -3L418 27L366 30C311 33 301 44 301 96L301 700L60 598L67 548L217 614L217 96C217 44 206 33 152 30L96 27L96 -3C250 0 250 0 261 0C292 0 402 -3 418 -3Z" stroke="rgb(0,0,0)" stroke-opacity="1" stroke-width="8" fill="rgb(0,0,0)" fill-opacity="1"></path></g></g></g></g></g></g></g><g><g><g><g transform="matrix(1,0,0,1,409.078125,184.3)"><path transform="matrix(0.015300000000000001,0,0,-0.015300000000000001,0,0)" d="M328 111L304 94C251 56 203 36 167 36C120 36 91 73 91 133C91 158 94 185 99 214C116 218 225 248 250 259C335 296 374 342 374 404C374 451 340 482 290 482C222 496 112 423 75 349C45 299 15 180 15 113C15 35 59 -11 131 -11C188 -11 244 17 336 92ZM113 274C130 343 150 386 179 412C197 428 228 440 252 440C281 440 300 420 300 388C300 344 265 297 213 272C185 258 149 247 104 237Z" stroke="rgb(0,0,0)" stroke-opacity="1" stroke-width="8" fill="rgb(0,0,0)" fill-opacity="1"></path></g></g><g><g><g><g><g transform="matrix(1,0,0,1,415.46875,187.006875)"><path transform="matrix(0.01071,0,0,-0.01071,0,0)" d="M16 23L16 -3C203 -3 203 0 239 0C275 0 275 -3 468 -3L468 82C353 77 307 81 122 77L304 270C401 373 431 428 431 503C431 618 353 689 226 689C154 689 105 669 56 619L39 483L68 483L81 529C97 587 133 612 200 612C286 612 341 558 341 473C341 398 299 324 186 204Z" stroke="rgb(0,0,0)" stroke-opacity="1" stroke-width="8" fill="rgb(0,0,0)" fill-opacity="1"></path></g></g></g></g></g></g></g><g><g><g><g transform="matrix(1,0,0,1,295.15625,296.878125)"><path transform="matrix(0.015300000000000001,0,0,-0.015300000000000001,0,0)" d="M328 111L304 94C251 56 203 36 167 36C120 36 91 73 91 133C91 158 94 185 99 214C116 218 225 248 250 259C335 296 374 342 374 404C374 451 340 482 290 482C222 496 112 423 75 349C45 299 15 180 15 113C15 35 59 -11 131 -11C188 -11 244 17 336 92ZM113 274C130 343 150 386 179 412C197 428 228 440 252 440C281 440 300 420 300 388C300 344 265 297 213 272C185 258 149 247 104 237Z" stroke="rgb(0,0,0)" stroke-opacity="0.5" stroke-width="8" fill="rgb(0,0,0)" fill-opacity="0.5"></path></g></g><g><g><g><g><g transform="matrix(1,0,0,1,301.546875,299.96)"><path transform="matrix(0.01071,0,0,-0.01071,0,0)" d="M462 224C462 345 355 366 308 374C388 436 418 482 418 541C418 630 344 689 233 689C165 689 120 670 72 622L43 498L74 498L92 554C103 588 166 622 218 622C283 622 336 569 336 506C336 431 277 368 206 368C198 368 187 369 174 370L159 371L147 318L154 312C192 329 211 334 238 334C321 334 369 281 369 190C369 88 308 21 215 21C169 21 128 36 98 64C74 86 61 109 42 163L15 153C36 92 44 56 50 6C103 -12 147 -20 184 -20C307 -20 462 87 462 224Z" stroke="rgb(0,0,0)" stroke-opacity="0.5" stroke-width="8" fill="rgb(0,0,0)" fill-opacity="0.5"></path></g></g></g><g></g></g></g></g></g><g><g><g><g transform="matrix(1,0,0,1,179.828125,184.128125)"><path transform="matrix(0.015300000000000001,0,0,-0.015300000000000001,0,0)" d="M328 111L304 94C251 56 203 36 167 36C120 36 91 73 91 133C91 158 94 185 99 214C116 218 225 248 250 259C335 296 374 342 374 404C374 451 340 482 290 482C222 496 112 423 75 349C45 299 15 180 15 113C15 35 59 -11 131 -11C188 -11 244 17 336 92ZM113 274C130 343 150 386 179 412C197 428 228 440 252 440C281 440 300 420 300 388C300 344 265 297 213 272C185 258 149 247 104 237Z" stroke="rgb(0,0,0)" stroke-opacity="0.5" stroke-width="8" fill="rgb(0,0,0)" fill-opacity="0.5"></path></g></g><g><g><g><g><g transform="matrix(1,0,0,1,186.21875,186.835)"><path transform="matrix(0.01071,0,0,-0.01071,0,0)" d="M280 181L280 106C280 46 269 32 220 30L158 27L158 -3C291 0 291 0 315 0C339 0 339 0 472 -3L472 27L424 30C375 33 364 46 364 106L364 181C423 181 444 180 472 177L472 248L364 245L365 697L285 667L2 204L2 181ZM280 245L65 245L280 597Z" stroke="rgb(0,0,0)" stroke-opacity="0.5" stroke-width="8" fill="rgb(0,0,0)" fill-opacity="0.5"></path></g></g></g></g></g></g></g><g><g><g><g transform="matrix(1,0,0,1,265,134.928125)"><path transform="matrix(0.0136,0,0,-0.0136,0,0)" d="M328 111L304 94C251 56 203 36 167 36C120 36 91 73 91 133C91 158 94 185 99 214C116 218 225 248 250 259C335 296 374 342 374 404C374 451 340 482 290 482C222 496 112 423 75 349C45 299 15 180 15 113C15 35 59 -11 131 -11C188 -11 244 17 336 92ZM113 274C130 343 150 386 179 412C197 428 228 440 252 440C281 440 300 420 300 388C300 344 265 297 213 272C185 258 149 247 104 237Z" stroke="rgb(0,0,0)" stroke-opacity="0.5" stroke-width="8" fill="rgb(0,0,0)" fill-opacity="0.5"></path></g></g><g><g><g><g><g transform="matrix(1,0,0,1,270.6875,138.3325)"><path transform="matrix(0.009519999999999999,0,0,-0.009519999999999999,0,0)" d="M459 253C459 366 378 446 264 446C216 446 180 443 127 396L127 605L432 604L432 689L75 690L75 322L95 316C142 363 169 377 218 377C314 377 374 309 374 201C374 90 310 25 201 25C147 25 97 43 83 69L37 151L13 137C36 80 48 48 62 4C90 -11 130 -20 173 -20C301 -20 459 89 459 253Z" stroke="rgb(0,0,0)" stroke-opacity="0.5" stroke-width="8" fill="rgb(0,0,0)" fill-opacity="0.5"></path></g></g></g></g></g></g></g><g><g><g><g transform="matrix(1,0,0,1,323.328125,134.928125)"><path transform="matrix(0.0136,0,0,-0.0136,0,0)" d="M328 111L304 94C251 56 203 36 167 36C120 36 91 73 91 133C91 158 94 185 99 214C116 218 225 248 250 259C335 296 374 342 374 404C374 451 340 482 290 482C222 496 112 423 75 349C45 299 15 180 15 113C15 35 59 -11 131 -11C188 -11 244 17 336 92ZM113 274C130 343 150 386 179 412C197 428 228 440 252 440C281 440 300 420 300 388C300 344 265 297 213 272C185 258 149 247 104 237Z" stroke="rgb(0,0,0)" stroke-opacity="0.5" stroke-width="8" fill="rgb(0,0,0)" fill-opacity="0.5"></path></g></g><g><g><g><g><g transform="matrix(1,0,0,1,329.015625,138.3325)"><path transform="matrix(0.009519999999999999,0,0,-0.009519999999999999,0,0)" d="M131 331C152 512 241 611 421 665L379 689C283 657 242 637 191 593C88 506 32 384 32 247C32 82 112 -20 241 -20C371 -20 468 83 468 219C468 334 399 409 293 409C216 409 184 370 131 331ZM255 349C331 349 382 283 382 184C382 80 331 13 254 13C169 13 123 86 123 220C123 255 127 274 138 291C160 325 207 349 255 349Z" stroke="rgb(0,0,0)" stroke-opacity="0.5" stroke-width="8" fill="rgb(0,0,0)" fill-opacity="0.5"></path></g></g></g></g></g></g></g></svg>
</svg>
